<svg width="58" height="35" viewBox="0 0 58 35" fill="none" xmlns="http://www.w3.org/2000/svg">
<path d="M38.3585 4.9995C28.3767 -4.77486 11.4024 0.544708 8.89127 14.3478C5.34382 14.86 2.30427 17.182 0.86965 20.4824C0.867868 20.4863 0.866086 20.4902 0.864415 20.4943C-2.10808 27.3557 2.95664 35 10.3888 35H41.8287C50.2099 35 57.0285 28.1815 57.0285 19.8004C57.0285 10.0641 47.93 2.76191 38.3585 4.9995ZM41.8287 31.4363H10.3889C2.67607 31.4363 0.973237 20.4914 8.3045 18.1308C9.94775 17.6129 13.0951 17.3124 16.5892 20.5693C17.3092 21.2402 18.4366 21.2005 19.1076 20.4808C19.7786 19.7608 19.7389 18.6334 19.0192 17.9624C17.0221 16.101 14.7787 14.9183 12.505 14.4591C14.9592 3.42353 28.92 -0.226954 36.48 8.18763C36.9466 8.70679 37.6734 8.90617 38.3393 8.69665C45.8323 6.34457 53.4646 11.9684 53.4646 19.8005C53.4648 26.2164 48.2449 31.4363 41.8287 31.4363Z" fill="#C4E8DD"/>
</svg>
